<svg width="29" height="30" viewBox="0 0 29 30" fill="none" xmlns="http://www.w3.org/2000/svg">
<path d="M8.55128 8.37209C7.93527 8.37209 7.4359 8.84063 7.4359 9.4186C7.4359 9.99658 7.93527 10.4651 8.55128 10.4651H20.4487C21.0647 10.4651 21.5641 9.99658 21.5641 9.4186C21.5641 8.84063 21.0647 8.37209 20.4487 8.37209H8.55128Z" fill="#244A56" fill-opacity="0.7"/>
<path d="M8.55128 13.9535C7.93527 13.9535 7.4359 14.422 7.4359 15C7.4359 15.578 7.93527 16.0465 8.55128 16.0465H20.4487C21.0647 16.0465 21.5641 15.578 21.5641 15C21.5641 14.422 21.0647 13.9535 20.4487 13.9535H8.55128Z" fill="#244A56" fill-opacity="0.7"/>
<path d="M8.55128 19.5349C7.93527 19.5349 7.4359 20.0034 7.4359 20.5814C7.4359 21.1594 7.93527 21.6279 8.55128 21.6279H20.4487C21.0647 21.6279 21.5641 21.1594 21.5641 20.5814C21.5641 20.0034 21.0647 19.5349 20.4487 19.5349H8.55128Z" fill="#244A56" fill-opacity="0.7"/>
<path fill-rule="evenodd" clip-rule="evenodd" d="M21.1381 0.172644C19.4395 -2.02725e-05 17.2986 -1.12095e-05 14.5673 1.84656e-07H14.4327C11.7014 -1.12095e-05 9.5605 -2.02725e-05 7.86194 0.172644C6.12858 0.348846 4.72411 0.714871 3.52497 1.53231C2.79901 2.02718 2.16059 2.62617 1.63315 3.3073C0.761918 4.43241 0.371804 5.75015 0.184006 7.37648C-2.16067e-05 8.97016 -1.19473e-05 10.9789 1.9681e-07 13.5415V16.4585C-1.19473e-05 19.0211 -2.16067e-05 21.0298 0.184006 22.6235C0.371804 24.2499 0.761918 25.5676 1.63315 26.6927C2.16059 27.3738 2.79901 27.9728 3.52497 28.4677C4.72411 29.2851 6.12858 29.6512 7.86194 29.8274C9.56047 30 11.7014 30 14.4326 30H14.5673C17.2985 30 19.4395 30 21.1381 29.8274C22.8714 29.6512 24.2759 29.2851 25.475 28.4677C26.201 27.9728 26.8394 27.3738 27.3669 26.6927C28.2381 25.5676 28.6282 24.2499 28.816 22.6235C29 21.0299 29 19.0212 29 16.4586V13.5415C29 10.9789 29 8.97013 28.816 7.37648C28.6282 5.75015 28.2381 4.43241 27.3669 3.3073C26.8394 2.62617 26.201 2.02718 25.475 1.53231C24.2759 0.714871 22.8714 0.348846 21.1381 0.172644ZM4.83618 3.2256C5.59167 2.71059 6.55866 2.4104 8.10222 2.25349C9.66666 2.09446 11.6869 2.09302 14.5 2.09302C17.3131 2.09302 19.3333 2.09446 20.8978 2.25349C22.4413 2.4104 23.4083 2.71059 24.1638 3.2256C24.7004 3.59137 25.1723 4.03411 25.5621 4.53755C26.111 5.2464 26.431 6.15368 26.5982 7.60192C26.7677 9.06976 26.7692 10.9652 26.7692 13.6047V16.3953C26.7692 19.0348 26.7677 20.9302 26.5982 22.3981C26.431 23.8463 26.111 24.7536 25.5621 25.4624C25.1723 25.9659 24.7004 26.4086 24.1638 26.7744C23.4083 27.2894 22.4413 27.5896 20.8978 27.7465C19.3333 27.9055 17.3131 27.907 14.5 27.907C11.6869 27.907 9.66666 27.9055 8.10222 27.7465C6.55866 27.5896 5.59167 27.2894 4.83618 26.7744C4.2996 26.4086 3.82773 25.9659 3.43788 25.4624C2.88898 24.7536 2.56903 23.8463 2.4018 22.3981C2.2323 20.9302 2.23077 19.0348 2.23077 16.3953V13.6047C2.23077 10.9652 2.2323 9.06976 2.4018 7.60192C2.56903 6.15368 2.88898 5.2464 3.43788 4.53755C3.82773 4.03411 4.2996 3.59137 4.83618 3.2256Z" fill="#244A56" fill-opacity="0.7"/>
</svg>
