<svg width="27" height="28" viewBox="0 0 27 28" fill="none" xmlns="http://www.w3.org/2000/svg">
<path fill-rule="evenodd" clip-rule="evenodd" d="M9.34615 10.1923C7.24322 10.1923 5.53846 11.8971 5.53846 14C5.53846 16.1029 7.24322 17.8077 9.34615 17.8077C11.0891 17.8077 12.5585 16.6367 13.0105 15.0385H15.5613C15.6378 15.4137 15.5886 15.8085 15.4135 16.1586L15.3404 16.3048C15.0839 16.8178 15.2918 17.4416 15.8048 17.6981C16.3178 17.9545 16.9416 17.7466 17.1981 17.2336L17.2711 17.0875C17.5922 16.4454 17.7209 15.7352 17.6574 15.0385H19.7151C19.7917 15.4137 19.7424 15.8085 19.5673 16.1586L19.4942 16.3048C19.2378 16.8178 19.4457 17.4416 19.9587 17.6981C20.4716 17.9545 21.0954 17.7466 21.3519 17.2336L21.425 17.0875C21.961 16.0155 21.961 14.7537 21.425 13.6818C21.2043 13.2404 20.7531 12.9615 20.2596 12.9615H16.2901C16.2757 12.9612 16.2612 12.9612 16.2467 12.9615H13.0105C12.5585 11.3633 11.0891 10.1923 9.34615 10.1923ZM7.61538 14C7.61538 13.0441 8.39028 12.2692 9.34615 12.2692C10.302 12.2692 11.0769 13.0441 11.0769 14C11.0769 14.9559 10.302 15.7308 9.34615 15.7308C8.39028 15.7308 7.61538 14.9559 7.61538 14Z" fill="#244A56" fill-opacity="0.7"/>
<path fill-rule="evenodd" clip-rule="evenodd" d="M19.6803 0.671316C18.0988 0.49998 16.1055 0.499989 13.5627 0.5H13.4373C10.8945 0.499989 8.90116 0.49998 7.31974 0.671316C5.70592 0.846163 4.39831 1.20937 3.28186 2.02052C2.60597 2.51158 2.01158 3.10597 1.52052 3.78186C0.709372 4.89831 0.346163 6.20592 0.171316 7.81974C-2.01166e-05 9.40116 -1.11233e-05 11.3945 1.83235e-07 13.9373V14.0627C-1.11233e-05 16.6055 -2.01166e-05 18.5988 0.171316 20.1803C0.346163 21.7941 0.709372 23.1017 1.52052 24.2181C2.01158 24.894 2.60597 25.4884 3.28186 25.9795C4.39831 26.7906 5.70592 27.1538 7.31974 27.3287C8.90113 27.5 10.8944 27.5 13.4372 27.5H13.5627C16.1055 27.5 18.0989 27.5 19.6803 27.3287C21.2941 27.1538 22.6017 26.7906 23.7181 25.9795C24.394 25.4884 24.9884 24.894 25.4795 24.2181C26.2906 23.1017 26.6538 21.7941 26.8287 20.1803C27 18.5989 27 16.6056 27 14.0628V13.9373C27 11.3945 27 9.40113 26.8287 7.81974C26.6538 6.20592 26.2906 4.89831 25.4795 3.78186C24.9884 3.10597 24.394 2.51158 23.7181 2.02052C22.6017 1.20937 21.2941 0.846163 19.6803 0.671316ZM4.50265 3.70079C5.20604 3.18974 6.10634 2.89186 7.54345 2.73616C8.99999 2.57835 10.8809 2.57692 13.5 2.57692C16.1191 2.57692 18 2.57835 19.4566 2.73616C20.8937 2.89186 21.794 3.18974 22.4974 3.70079C22.9969 4.06375 23.4363 4.50308 23.7992 5.00265C24.3103 5.70604 24.6081 6.60634 24.7638 8.04345C24.9217 9.49999 24.9231 11.3809 24.9231 14C24.9231 16.6191 24.9217 18.5 24.7638 19.9566C24.6081 21.3937 24.3103 22.294 23.7992 22.9974C23.4363 23.4969 22.9969 23.9363 22.4974 24.2992C21.794 24.8103 20.8937 25.1081 19.4566 25.2638C18 25.4217 16.1191 25.4231 13.5 25.4231C10.8809 25.4231 8.99999 25.4217 7.54345 25.2638C6.10634 25.1081 5.20604 24.8103 4.50265 24.2992C4.00308 23.9363 3.56375 23.4969 3.20079 22.9974C2.68974 22.294 2.39186 21.3937 2.23616 19.9566C2.07835 18.5 2.07692 16.6191 2.07692 14C2.07692 11.3809 2.07835 9.49999 2.23616 8.04345C2.39186 6.60634 2.68974 5.70604 3.20079 5.00265C3.56375 4.50308 4.00308 4.06375 4.50265 3.70079Z" fill="#244A56" fill-opacity="0.7"/>
</svg>
