<svg width="25" height="24" viewBox="0 0 25 24" fill="none" xmlns="http://www.w3.org/2000/svg">
<path fill-rule="evenodd" clip-rule="evenodd" d="M18.8529 0.152281C17.5249 -1.78814e-05 15.8509 -9.88738e-06 13.7154 1.62876e-07H11.2846C9.14909 -9.88738e-06 7.47513 -1.78814e-05 6.14707 0.152281C4.79179 0.3077 3.69367 0.630553 2.75609 1.35157C2.18848 1.78807 1.68931 2.31642 1.27692 2.91721C1.08892 3.1911 0.92792 3.48038 0.790548 3.78827C0.369865 4.73113 0.182222 5.82445 0.0907729 7.12822C-5.2414e-06 8.42244 -2.82636e-06 10.0089 1.5388e-07 11.965V12.0557C-9.34128e-06 14.316 -1.68938e-05 16.0879 0.14387 17.4936C0.290705 18.9281 0.595726 20.0904 1.27692 21.0828C1.68931 21.6836 2.18848 22.2119 2.75609 22.6484C3.69367 23.3694 4.79179 23.6923 6.14707 23.8477C7.47511 24 9.14903 24 11.2845 24H13.7154C15.8509 24 17.5249 24 18.8529 23.8477C20.2082 23.6923 21.3063 23.3694 22.2439 22.6484C22.8115 22.2119 23.3107 21.6836 23.7231 21.0828C24.4043 20.0904 24.7093 18.9281 24.8561 17.4936C25 16.0879 25 14.3161 25 12.0558V11.9642C25 9.99474 25 8.39982 24.9073 7.10036C24.8138 5.79084 24.6219 4.69389 24.1914 3.74826C24.058 3.45519 23.9029 3.17912 23.7231 2.91721C23.3107 2.31642 22.8115 1.78807 22.2439 1.35157C21.3063 0.630553 20.2082 0.3077 18.8529 0.152281ZM3.78129 2.84514C4.372 2.39088 5.12806 2.12609 6.33494 1.98769C7.55813 1.84742 9.13771 1.84615 11.3372 1.84615H13.6628C15.8623 1.84615 17.4419 1.84742 18.6651 1.98769C19.8719 2.12609 20.628 2.39088 21.2187 2.84514C21.638 3.16762 22.0068 3.55792 22.3116 4.00172L20.1055 6.33675C18.1501 8.40648 16.7443 9.89173 15.5317 10.871C14.3392 11.834 13.4368 12.2202 12.5 12.2202C11.5632 12.2202 10.6608 11.834 9.46832 10.871C8.25575 9.89173 6.84991 8.40648 4.89449 6.33674L2.68844 4.00172C2.99316 3.55792 3.36196 3.16762 3.78129 2.84514ZM23.0085 5.87492C23.0787 6.26905 23.1309 6.71866 23.168 7.23944C23.2552 8.46145 23.2558 9.98748 23.2558 12C23.2558 14.3281 23.2546 16 23.1221 17.2947C22.9913 18.5721 22.7412 19.3724 22.312 19.9976C22.0072 20.4417 21.6382 20.8322 21.2187 21.1549C20.628 21.6091 19.8719 21.8739 18.6651 22.0123C17.4419 22.1526 15.8623 22.1538 13.6628 22.1538H11.3372C9.13771 22.1538 7.55813 22.1526 6.33494 22.0123C5.12806 21.8739 4.372 21.6091 3.78129 21.1549C3.36176 20.8322 2.99281 20.4417 2.688 19.9976C2.25883 19.3724 2.00866 18.5721 1.87791 17.2947C1.74538 16 1.74419 14.3281 1.74419 12C1.74419 10.0018 1.74473 8.483 1.83017 7.26491C1.86746 6.73335 1.92013 6.27551 1.99153 5.87492L3.70834 7.6921C5.60633 9.70107 7.09374 11.2755 8.41033 12.3387C9.75792 13.427 11.0285 14.0664 12.5 14.0664C13.9715 14.0664 15.2421 13.427 16.5897 12.3387C17.9062 11.2755 19.3937 9.70109 21.2916 7.69213L23.0085 5.87492Z" fill="#244A56" fill-opacity="0.7"/>
</svg>
