<svg width="25" height="31" viewBox="0 0 25 31" fill="none" xmlns="http://www.w3.org/2000/svg">
<path fill-rule="evenodd" clip-rule="evenodd" d="M12.5 0.5C8.26879 0.5 4.83871 3.61217 4.83871 7.45122C4.83871 11.2903 8.26879 14.4024 12.5 14.4024C16.7312 14.4024 20.1613 11.2903 20.1613 7.45122C20.1613 3.61217 16.7312 0.5 12.5 0.5ZM7.25806 7.45122C7.25806 4.8245 9.60496 2.69512 12.5 2.69512C15.395 2.69512 17.7419 4.8245 17.7419 7.45122C17.7419 10.0779 15.395 12.2073 12.5 12.2073C9.60496 12.2073 7.25806 10.0779 7.25806 7.45122Z" fill="#244A56" fill-opacity="0.7"/>
<path fill-rule="evenodd" clip-rule="evenodd" d="M7.66129 16.5976C3.43008 16.5976 0 19.7097 0 23.5488C0 27.3878 3.43008 30.5 7.66129 30.5H17.3387C21.5699 30.5 25 27.3878 25 23.5488C25 19.7097 21.5699 16.5976 17.3387 16.5976H7.66129ZM2.41935 23.5488C2.41935 20.9221 4.76625 18.7927 7.66129 18.7927H17.3387C20.2338 18.7927 22.5806 20.9221 22.5806 23.5488C22.5806 26.1755 20.2338 28.3049 17.3387 28.3049H7.66129C4.76625 28.3049 2.41935 26.1755 2.41935 23.5488Z" fill="#244A56" fill-opacity="0.7"/>
</svg>
