<svg width="25" height="27" viewBox="0 0 25 27" fill="none" xmlns="http://www.w3.org/2000/svg">
<path fill-rule="evenodd" clip-rule="evenodd" d="M12.5 13.8139C10.5528 13.8139 8.97437 15.3601 8.97437 17.2674C8.97437 19.1747 10.5528 20.7209 12.5 20.7209C14.4472 20.7209 16.0256 19.1747 16.0256 17.2674C16.0256 15.3601 14.4472 13.8139 12.5 13.8139ZM10.8974 17.2674C10.8974 16.4005 11.6149 15.6977 12.5 15.6977C13.3851 15.6977 14.1026 16.4005 14.1026 17.2674C14.1026 18.1344 13.3851 18.8372 12.5 18.8372C11.6149 18.8372 10.8974 18.1344 10.8974 17.2674Z" fill="#244A56" fill-opacity="0.7"/>
<path fill-rule="evenodd" clip-rule="evenodd" d="M12.5 0C8.42869 0 5.12823 3.23292 5.12823 7.22092V7.87746L5.09381 7.88829C2.84956 8.60257 1.09004 10.3261 0.360843 12.5244C-0.000533383 13.6138 -0.000323385 14.9214 2.08692e-05 17.0642V17.4707C-0.000323385 19.6134 -0.000533383 20.921 0.360843 22.0104C1.09004 24.2087 2.84956 25.9323 5.09381 26.6465C6.20601 27.0005 7.54088 27.0003 9.72839 27H15.2716C17.4591 27.0003 18.794 27.0005 19.9062 26.6465C22.1504 25.9323 23.91 24.2087 24.6392 22.0104C25.0005 20.921 25.0003 19.6134 25 17.4707V17.0641C25.0003 14.9214 25.0005 13.6138 24.6392 12.5244C23.91 10.3261 22.1504 8.60257 19.9062 7.88829L19.8718 7.87746V7.22092C19.8718 3.23292 16.5713 0 12.5 0ZM9.82824 7.53487C8.70107 7.53483 7.80143 7.5348 7.0513 7.5764V7.22092C7.0513 4.27326 9.49077 1.88372 12.5 1.88372C15.5092 1.88372 17.9487 4.27326 17.9487 7.22092V7.5764C17.1986 7.5348 16.2989 7.53483 15.1718 7.53487H9.82824ZM6.2495 9.54831C7.01566 9.42188 8.04892 9.41859 9.93591 9.41859H15.0641C16.9511 9.41859 17.9843 9.42188 18.7505 9.54831C18.9624 9.58327 19.145 9.6267 19.3119 9.67981C20.9707 10.2078 22.2712 11.4817 22.8102 13.1065C23.065 13.8747 23.0769 14.8567 23.0769 17.2674C23.0769 19.6781 23.065 20.6601 22.8102 21.4283C22.2712 23.0532 20.9707 24.3271 19.3119 24.855C18.5277 25.1046 17.5252 25.1162 15.0641 25.1162H9.93591C7.47482 25.1162 6.47231 25.1046 5.68807 24.855C4.02928 24.3271 2.72877 23.0532 2.18979 21.4283C1.93498 20.6601 1.92311 19.6781 1.92311 17.2674C1.92311 14.8567 1.93498 13.8747 2.18979 13.1065C2.72877 11.4817 4.02928 10.2078 5.68807 9.67981C5.85496 9.6267 6.03765 9.58327 6.2495 9.54831Z" fill="#244A56" fill-opacity="0.7"/>
</svg>
