<svg width="30" height="30" viewBox="0 0 30 30" fill="none" xmlns="http://www.w3.org/2000/svg">
<path fill-rule="evenodd" clip-rule="evenodd" d="M16.1538 4.23077C16.1538 3.59352 15.6372 3.07692 15 3.07692C14.3627 3.07692 13.8462 3.59352 13.8462 4.23077V4.70473C13.3434 4.83084 12.8501 5.02789 12.3804 5.29906C8.19294 7.71671 8.72518 13.9214 13.2632 15.5906L13.8462 15.805L13.8462 23.0299C13.0233 22.7978 12.288 22.2569 11.8277 21.4596L11.2499 20.4589C10.9313 19.907 10.2256 19.7179 9.67371 20.0365C9.12183 20.3551 8.93274 21.0608 9.25137 21.6127L9.82916 22.6135C10.7191 24.1549 12.2195 25.1225 13.8462 25.39L13.8462 25.7692C13.8461 26.4065 14.3627 26.9231 15 26.9231C15.6372 26.9231 16.1538 26.4065 16.1538 25.7692L16.1538 25.2953C16.6566 25.1692 17.15 24.9721 17.6197 24.7009C21.8072 22.2833 21.275 16.0786 16.7369 14.4094L16.1539 14.195L16.1539 6.97004C16.9768 7.20212 17.7121 7.74304 18.1725 8.54038L18.7503 9.54115C19.0689 10.093 19.7746 10.2821 20.3264 9.96348C20.8783 9.64486 21.0674 8.93918 20.7488 8.3873L20.171 7.38654C19.281 5.84505 17.7806 4.87744 16.1538 4.61V4.23077ZM13.5343 7.29758C13.6367 7.23845 13.7408 7.18529 13.8462 7.13798L13.8462 13.3384C11.343 12.2331 11.1085 8.69809 13.5343 7.29758ZM16.1539 22.8621L16.1539 16.6616C18.6571 17.7668 18.8916 21.3019 16.4659 22.7024C16.3634 22.7616 16.2593 22.8148 16.1539 22.8621Z" fill="#244A56" fill-opacity="0.7"/>
<path fill-rule="evenodd" clip-rule="evenodd" d="M21.867 0.190351C20.1098 -2.23517e-05 17.8951 -1.23592e-05 15.0696 2.03596e-07H14.9304C12.1049 -1.23592e-05 9.89017 -2.23517e-05 8.13304 0.190351C6.33991 0.384625 4.88701 0.788191 3.64652 1.68947C2.89552 2.23509 2.23509 2.89552 1.68947 3.64652C0.788191 4.88701 0.384625 6.33991 0.190351 8.13304C-2.23517e-05 9.89017 -1.23592e-05 12.1049 2.03596e-07 14.9304V15.0696C-1.23592e-05 17.8951 -2.23517e-05 20.1098 0.190351 21.867C0.384625 23.6601 0.788191 25.113 1.68947 26.3535C2.23509 27.1045 2.89552 27.7649 3.64652 28.3105C4.88701 29.2118 6.33991 29.6154 8.13304 29.8097C9.89014 30 12.1049 30 14.9302 30H15.0697C17.895 30 20.1099 30 21.867 29.8097C23.6601 29.6154 25.113 29.2118 26.3535 28.3105C27.1045 27.7649 27.7649 27.1045 28.3105 26.3535C29.2118 25.113 29.6154 23.6601 29.8097 21.867C30 20.1099 30 17.8951 30 15.0698V14.9303C30 12.105 30 9.89014 29.8097 8.13304C29.6154 6.33991 29.2118 4.88701 28.3105 3.64652C27.7649 2.89552 27.1045 2.23509 26.3535 1.68947C25.113 0.788191 23.6601 0.384625 21.867 0.190351ZM5.00294 3.55643C5.78449 2.9886 6.78482 2.65762 8.38161 2.48462C9.99999 2.30928 12.0899 2.30769 15 2.30769C17.9101 2.30769 20 2.30928 21.6184 2.48462C23.2152 2.65762 24.2155 2.9886 24.9971 3.55643C25.5521 3.95972 26.0403 4.44786 26.4436 5.00294C27.0114 5.78449 27.3424 6.78482 27.5154 8.38161C27.6907 9.99999 27.6923 12.0899 27.6923 15C27.6923 17.9101 27.6907 20 27.5154 21.6184C27.3424 23.2152 27.0114 24.2155 26.4436 24.9971C26.0403 25.5521 25.5521 26.0403 24.9971 26.4436C24.2155 27.0114 23.2152 27.3424 21.6184 27.5154C20 27.6907 17.9101 27.6923 15 27.6923C12.0899 27.6923 9.99999 27.6907 8.38161 27.5154C6.78482 27.3424 5.78449 27.0114 5.00294 26.4436C4.44786 26.0403 3.95972 25.5521 3.55643 24.9971C2.9886 24.2155 2.65762 23.2152 2.48462 21.6184C2.30928 20 2.30769 17.9101 2.30769 15C2.30769 12.0899 2.30928 9.99999 2.48462 8.38161C2.65762 6.78482 2.9886 5.78449 3.55643 5.00294C3.95972 4.44786 4.44786 3.95972 5.00294 3.55643Z" fill="#244A56" fill-opacity="0.7"/>
</svg>
