<svg width="25" height="10" viewBox="0 0 25 10" fill="none" xmlns="http://www.w3.org/2000/svg">
<path d="M24.5276 2.32356C25.1615 1.78866 25.1569 0.925259 24.5173 0.395108C23.8777 -0.135044 22.8454 -0.131192 22.2115 0.403711L18.413 3.60911C16.8714 4.91001 15.8105 5.80237 14.9115 6.40619C14.0383 6.99274 13.4774 7.19396 12.975 7.24751C12.6596 7.28113 12.3404 7.28113 12.025 7.24751C11.5226 7.19396 10.9617 6.99274 10.0885 6.40619C9.18952 5.80237 8.12856 4.91001 6.58696 3.60911L2.78846 0.403713C2.15458 -0.131191 1.12226 -0.135043 0.482698 0.395109C-0.15686 0.925261 -0.161466 1.78866 0.472411 2.32356L4.33934 5.58671C5.79574 6.81575 6.98606 7.82025 8.04665 8.53263C9.14953 9.27341 10.269 9.80965 11.6127 9.95289C12.2019 10.0157 12.7981 10.0157 13.3873 9.95289C14.731 9.80965 15.8505 9.2734 16.9534 8.53262C18.0139 7.82025 19.2043 6.81576 20.6607 5.58672L24.5276 2.32356Z" fill="#244A56" fill-opacity="0.7"/>
</svg>
