<svg width="29" height="30" viewBox="0 0 29 30" fill="none" xmlns="http://www.w3.org/2000/svg">
<path fill-rule="evenodd" clip-rule="evenodd" d="M10.0385 0C10.6545 0 11.1538 0.468539 11.1538 1.04651V2.8055C12.1491 2.7907 13.255 2.7907 14.4836 2.7907H14.5164C15.745 2.7907 16.8509 2.7907 17.8462 2.8055V1.04651C17.8462 0.468539 18.3455 0 18.9615 0C19.5775 0 20.0769 0.468539 20.0769 1.04651V2.87941C22.3254 3.01167 24.0528 3.35351 25.475 4.323C26.201 4.81787 26.8394 5.41687 27.3669 6.098C28.2381 7.2231 28.6282 8.54084 28.816 10.1672C29 11.7608 29 13.7696 29 16.3322V16.4113C29 18.0298 29 19.4213 28.9563 20.6172C28.8609 23.2313 28.5594 25.1527 27.3669 26.6927C26.8394 27.3738 26.201 27.9728 25.475 28.4677C23.8337 29.5866 21.7859 29.8695 18.9997 29.959C17.7248 30 16.2414 30 14.516 30H14.4327C11.7014 30 9.56049 30 7.86194 29.8274C6.12858 29.6512 4.72411 29.2851 3.52497 28.4677C2.79901 27.9728 2.16059 27.3738 1.63315 26.6927C0.761918 25.5676 0.371804 24.2498 0.184006 22.6235C-2.1784e-05 21.0298 -1.21202e-05 19.0211 2.01103e-07 16.4585V16.3322C-1.21202e-05 13.7696 -2.1784e-05 11.7609 0.184006 10.1672C0.371804 8.54084 0.761918 7.2231 1.63315 6.098C2.16059 5.41687 2.79901 4.81787 3.52497 4.323C4.94718 3.35351 6.67459 3.01167 8.92308 2.87941V1.04651C8.92308 0.468539 9.42245 0 10.0385 0ZM8.92308 4.97756C6.89746 5.10826 5.72828 5.40817 4.83618 6.01629C4.2996 6.38207 3.82773 6.8248 3.43788 7.32825C2.88898 8.03709 2.56903 8.94437 2.4018 10.3926C2.2323 11.8605 2.23077 13.7559 2.23077 16.3953C2.23077 19.0348 2.2323 20.9302 2.4018 22.3981C2.56903 23.8463 2.88898 24.7536 3.43788 25.4624C3.82773 25.9659 4.2996 26.4086 4.83618 26.7744C5.59167 27.2894 6.55866 27.5896 8.10222 27.7465C9.66666 27.9055 11.6869 27.907 14.5 27.907C15.7616 27.907 16.8673 27.9069 17.8489 27.8919C17.8554 27.2296 17.8773 26.742 17.9514 26.303C18.531 22.8699 21.4007 20.1774 25.0597 19.6337C25.5276 19.5641 26.0473 19.5435 26.7532 19.5374C26.7692 18.6164 26.7692 17.5791 26.7692 16.3953C26.7692 13.7559 26.7677 11.8605 26.5982 10.3926C26.431 8.94437 26.111 8.03709 25.5621 7.32825C25.1723 6.82481 24.7004 6.38207 24.1638 6.01629C23.2717 5.40817 22.1025 5.10826 20.0769 4.97756V5.23256C20.0769 5.81053 19.5775 6.27907 18.9615 6.27907C18.3455 6.27907 17.8462 5.81053 17.8462 5.23256V4.89877C16.8652 4.88379 15.7605 4.88372 14.5 4.88372C13.2395 4.88372 12.1348 4.88379 11.1538 4.89877V5.23256C11.1538 5.81053 10.6545 6.27907 10.0385 6.27907C9.42245 6.27907 8.92308 5.81053 8.92308 5.23256V4.97756ZM26.6689 21.6318C26.0667 21.6383 25.7136 21.6556 25.4087 21.7009C22.7042 22.1028 20.5831 24.0929 20.1547 26.6304C20.1064 26.9165 20.088 27.2478 20.0811 27.8129C22.1041 27.682 23.2723 27.3821 24.1638 26.7744C24.7004 26.4086 25.1723 25.9659 25.5621 25.4624C26.2098 24.626 26.5295 23.5299 26.6689 21.6318Z" fill="#244A56" fill-opacity="0.7"/>
<path d="M8.55128 10.814C8.55128 11.5846 7.88545 12.2093 7.0641 12.2093C6.24276 12.2093 5.57692 11.5846 5.57692 10.814C5.57692 10.0433 6.24276 9.4186 7.0641 9.4186C7.88545 9.4186 8.55128 10.0433 8.55128 10.814Z" fill="#244A56" fill-opacity="0.7"/>
<path d="M8.55128 16.3953C8.55128 17.166 7.88545 17.7907 7.0641 17.7907C6.24276 17.7907 5.57692 17.166 5.57692 16.3953C5.57692 15.6247 6.24276 15 7.0641 15C7.88545 15 8.55128 15.6247 8.55128 16.3953Z" fill="#244A56" fill-opacity="0.7"/>
<path d="M15.9872 10.814C15.9872 11.5846 15.3213 12.2093 14.5 12.2093C13.6787 12.2093 13.0128 11.5846 13.0128 10.814C13.0128 10.0433 13.6787 9.4186 14.5 9.4186C15.3213 9.4186 15.9872 10.0433 15.9872 10.814Z" fill="#244A56" fill-opacity="0.7"/>
<path d="M15.9872 16.3953C15.9872 17.166 15.3213 17.7907 14.5 17.7907C13.6787 17.7907 13.0128 17.166 13.0128 16.3953C13.0128 15.6247 13.6787 15 14.5 15C15.3213 15 15.9872 15.6247 15.9872 16.3953Z" fill="#244A56" fill-opacity="0.7"/>
<path d="M15.9872 21.9767C15.9872 22.7474 15.3213 23.3721 14.5 23.3721C13.6787 23.3721 13.0128 22.7474 13.0128 21.9767C13.0128 21.2061 13.6787 20.5814 14.5 20.5814C15.3213 20.5814 15.9872 21.2061 15.9872 21.9767Z" fill="#244A56" fill-opacity="0.7"/>
<path d="M23.4231 10.814C23.4231 11.5846 22.7572 12.2093 21.9359 12.2093C21.1146 12.2093 20.4487 11.5846 20.4487 10.814C20.4487 10.0433 21.1146 9.4186 21.9359 9.4186C22.7572 9.4186 23.4231 10.0433 23.4231 10.814Z" fill="#244A56" fill-opacity="0.7"/>
<path d="M23.4231 16.3953C23.4231 17.166 22.7572 17.7907 21.9359 17.7907C21.1146 17.7907 20.4487 17.166 20.4487 16.3953C20.4487 15.6247 21.1146 15 21.9359 15C22.7572 15 23.4231 15.6247 23.4231 16.3953Z" fill="#244A56" fill-opacity="0.7"/>
<path d="M8.55128 21.9767C8.55128 22.7474 7.88545 23.3721 7.0641 23.3721C6.24276 23.3721 5.57692 22.7474 5.57692 21.9767C5.57692 21.2061 6.24276 20.5814 7.0641 20.5814C7.88545 20.5814 8.55128 21.2061 8.55128 21.9767Z" fill="#244A56" fill-opacity="0.7"/>
</svg>
