<svg width="355" height="471" viewBox="0 0 355 471" fill="none" xmlns="http://www.w3.org/2000/svg">
<g filter="url(#filter0_d_12_2)">
<path d="M346.665 0.352582L353.69 4.43244C354.222 4.73086 354.627 5.21174 354.83 5.78596C355.034 6.36018 355.023 6.98879 354.799 7.5553L349.284 32.1352C349.176 32.6147 348.931 33.0525 348.578 33.3944L348.125 33.7974L347.571 34.0996H347.017L339.689 35.0566V47.6487V47.7998V48.228L339.488 48.505C339.402 48.6578 339.301 48.8013 339.185 48.9331V49.0842L339.009 49.2857L338.631 49.5124L338.128 49.739H337.649L308.211 53.3152L304.383 65.2274C304.253 65.6409 304.019 66.0139 303.703 66.3103L303.376 66.5622C303.226 66.6904 303.056 66.7925 302.872 66.8644H302.696L301.638 66.9903V71.2716L330.447 68.2495H330.623H330.976H331.228L331.202 68.451L338.228 72.5308C338.633 72.7523 338.97 73.0809 339.201 73.4806C339.432 73.8804 339.548 74.3359 339.538 74.7974V90.0591V90.2354V90.6887L339.362 90.9154C339.278 91.0696 339.177 91.2133 339.059 91.3435L338.883 91.5702L338.531 91.7969C338.346 91.8925 338.152 91.9684 337.951 92.0235C337.793 92.047 337.632 92.047 337.473 92.0235L308.085 94.8945L304.257 106.656C304.124 107.081 303.881 107.463 303.552 107.764L303.225 108.016C303.069 108.129 302.9 108.222 302.721 108.293H302.545H301.512V646.179C301.52 646.558 301.443 646.933 301.286 647.278C301.129 647.622 300.896 647.927 300.606 648.169C300.129 648.581 299.523 648.812 298.893 648.824H298.566L278.092 645.877C277.474 645.809 276.902 645.513 276.488 645.048C276.074 644.583 275.847 643.981 275.851 643.359V642.578L271.066 641.873C270.443 641.81 269.865 641.517 269.446 641.052C269.027 640.586 268.797 639.981 268.8 639.354V107.084L266.886 106.001L266.659 105.648L266.483 105.447L266.307 104.993L264.317 99.1507L161.774 109.224L158.651 119.751C158.516 120.19 158.274 120.588 157.946 120.91L157.417 121.338L157.09 121.464H156.914H156.36V625.402C156.356 625.779 156.273 626.15 156.117 626.493C155.961 626.836 155.735 627.142 155.453 627.392C154.963 627.794 154.35 628.017 153.716 628.021H153.388L136.239 625.503C135.62 625.434 135.049 625.139 134.635 624.674C134.221 624.209 133.994 623.607 133.998 622.985V622.179L129.213 621.499C128.6 621.411 128.038 621.11 127.623 620.65C127.209 620.19 126.97 619.599 126.946 618.98V119.474L125.99 119.071L125.662 118.845C125.423 118.674 125.218 118.461 125.058 118.215L124.881 118.014L124.73 117.535L123.093 112.75L106.347 114.387C105.887 114.392 105.434 114.27 105.038 114.035L97.4828 109.703V109.501C97.2842 109.281 97.1149 109.035 96.9792 108.771C96.8341 108.428 96.7571 108.06 96.7525 107.688V95.096C96.7509 94.4575 96.9919 93.8423 97.4267 93.3747C97.8615 92.9072 98.4576 92.6223 99.0945 92.5776L126.795 89.631V83.1083L124.73 80.5898V80.1365L122.942 75.7544L106.12 77.7692C105.653 77.7684 105.193 77.647 104.786 77.4166L97.231 73.0849V72.9086C97.0097 72.6915 96.8304 72.4353 96.7022 72.1531C96.5525 71.8117 96.4753 71.4429 96.4755 71.0702V65.7311L90.0036 61.3238V61.0468C89.8486 60.8792 89.7288 60.6822 89.651 60.4676V60.3416C89.6423 60.2075 89.6423 60.0729 89.651 59.9387L85.5714 40.0934C85.4734 39.7147 85.465 39.3183 85.5469 38.9357C85.6287 38.5531 85.7986 38.1948 86.043 37.8893C86.2874 37.5838 86.5996 37.3394 86.9549 37.1756C87.3101 37.0117 87.6987 36.9329 88.0897 36.9454H94.5113C169.782 36.9454 255.68 24.3281 343.164 0.654794L344.952 0.151108H345.758H346.085H346.337L346.665 0.352582Z" fill="#244A56"/>
<path d="M265.879 53.7937L268.926 62.7593L294.108 59.8631H294.36L297.533 50.0412C287.083 52.0351 276.505 53.2891 265.879 53.7937ZM293.126 56.9921C287.684 58.0056 282.183 58.6785 276.657 59.0069C276.456 59.0069 276.405 58.6543 276.657 58.6291C282.037 57.2849 287.495 56.2756 293 55.607C293.731 55.5314 293.907 56.8158 293.126 56.9921Z" fill="white"/>
<path d="M100.631 57.9239C117.931 54.8011 135.534 53.1137 152.96 50.8975C172.602 48.4127 192.253 45.8942 211.913 43.3422L224.202 41.7808L339.437 26.7961L344.751 3.22359L343.945 3.45025C256.335 27.3502 170.059 39.9927 94.5113 39.9927H88.7193L92.5722 58.9313L100.631 57.9239ZM342.383 6.90051C341.475 11.9882 340.092 16.9797 338.254 21.8096C337.674 23.0508 336.753 24.101 335.597 24.837C334.442 25.5731 333.101 25.9644 331.731 25.965C321.658 27.4257 311.736 27.9294 301.714 28.9116C301.487 28.9116 301.437 28.5338 301.714 28.5087C309.873 27.1235 317.956 25.2851 326.166 24.1518C328.155 23.8747 330.271 23.7488 332.235 23.2955C332.86 23.1761 333.455 22.9344 333.987 22.5844C334.519 22.2343 334.976 21.7827 335.332 21.2556C327.183 22.5637 318.97 23.4463 310.729 23.8999C310.649 23.8999 310.572 23.8681 310.515 23.8114C310.459 23.7547 310.427 23.6779 310.427 23.5977C310.427 23.5176 310.459 23.4407 310.515 23.384C310.572 23.3273 310.649 23.2955 310.729 23.2955C319.307 21.1634 328.001 19.5321 336.768 18.4097C336.768 18.0572 336.994 17.6794 337.095 17.3268V17.1002C335.502 17.4269 333.885 17.629 332.26 17.7046C329.937 17.9902 327.6 18.1499 325.259 18.1831C325.193 18.1831 325.128 18.1565 325.081 18.1093C325.034 18.0621 325.008 17.998 325.008 17.9312C325.008 17.8644 325.034 17.8004 325.081 17.7532C325.128 17.7059 325.193 17.6794 325.259 17.6794C327.494 16.9337 329.774 16.3281 332.084 15.8661C333.952 15.2709 335.892 14.932 337.851 14.8588C338.027 14.3299 338.178 13.801 338.354 13.2721C336.648 13.8977 334.806 14.0627 333.016 13.7506C332.789 13.7506 332.839 13.4232 333.016 13.3477C334.149 12.9196 335.358 12.7181 336.516 12.3151C337.674 11.9122 338.128 11.6352 339.034 11.3581L339.563 9.82189C338.833 9.82189 338.077 9.82189 337.397 9.97299C336.717 10.1241 337.045 9.51968 337.397 9.41894C338.278 9.00219 339.197 8.67321 340.142 8.43675L340.898 6.422C341.011 6.31705 341.148 6.24258 341.298 6.20562C341.447 6.16866 341.604 6.17042 341.753 6.21075C341.901 6.25107 342.037 6.32863 342.148 6.4361C342.258 6.54356 342.339 6.67739 342.383 6.82495V6.90051Z" fill="white"/>
<path d="M146.11 89.7569V79.6832C143.013 80.1617 139.815 80.4639 136.692 80.7409C134.439 81.0506 132.159 81.1097 129.893 80.9172V91.4443L146.11 89.7569ZM134.627 88.7747C137.317 87.9656 140.072 87.3926 142.862 87.0622C142.988 87.0785 143.105 87.1359 143.196 87.2256C143.286 87.3153 143.344 87.4323 143.362 87.5584C143.379 87.6845 143.354 87.8128 143.291 87.9234C143.228 88.034 143.13 88.1208 143.013 88.1703C140.311 88.7409 137.564 89.0696 134.803 89.1525C134.451 89.1777 134.426 88.8503 134.627 88.7747Z" fill="white"/>
<path d="M123.522 67.6703L144.977 65.1518L264.393 50.6205L299.019 46.4147L329.717 42.6874V31.2286C310.805 34.3766 291.59 36.2654 272.577 38.5824L213.65 46.0118L152.96 53.5671C135.332 55.7833 117.553 58.6039 99.7744 59.8128V70.5161L123.522 67.6703ZM300.555 42.486C305.013 41.6801 309.445 40.8238 313.927 40.1186C317.251 39.6149 321.633 39.8416 324.151 37.7513C319.518 38.5965 314.795 38.842 310.099 38.4816C310.031 38.4621 309.971 38.4208 309.928 38.364C309.885 38.3072 309.862 38.238 309.862 38.1668C309.862 38.0957 309.885 38.0265 309.928 37.9697C309.971 37.9129 310.031 37.8716 310.099 37.852C315.287 37.4491 320.449 35.7617 325.637 35.6358C325.836 35.1256 325.972 34.5927 326.04 34.0492C326.04 33.4196 327.047 33.1678 327.249 33.8981C328.281 37.7261 326.997 40.4712 322.943 41.0504C315.539 42.083 308.06 42.3852 300.606 42.8637C300.379 42.9896 300.329 42.6119 300.555 42.5867V42.486Z" fill="white"/>
<path d="M132.613 78.2981L139.84 77.4922L146.463 76.7366L148.578 76.4848L151.097 67.6703C142.424 69.4872 133.611 70.549 124.756 70.8435L127.274 78.9025L132.613 78.2981ZM142.358 74.8226C143.848 74.4141 145.375 74.1526 146.916 74.0419C147.066 74.0475 147.208 74.1062 147.319 74.2075C147.429 74.3088 147.499 74.446 147.517 74.5945C147.536 74.7431 147.5 74.8933 147.418 75.0181C147.335 75.143 147.211 75.2344 147.067 75.2759C145.526 75.4149 143.975 75.4149 142.434 75.2759C142.006 75.3767 141.905 74.873 142.358 74.8226Z" fill="white"/>
<path d="M273.685 76.2581L278.42 75.7544L291.187 74.4197H291.414V62.9608H289.752C283.892 64.3319 277.89 64.9998 271.872 64.9504V76.51L273.685 76.2581ZM279.78 73.3367C282.924 72.6055 286.126 72.1504 289.349 71.9768C290.13 71.9768 290.331 73.236 289.55 73.3619C286.338 73.8016 283.096 73.9785 279.855 73.8908C279.553 73.8656 279.452 73.4123 279.78 73.3367Z" fill="white"/>
<path d="M278.546 639.934L291.414 641.797V104.213H291.137C284.755 105.119 278.318 105.574 271.872 105.573V638.977L278.52 639.934H278.546Z" fill="white"/>
<path d="M123.547 104.968L152.557 102.122L264.393 91.2176L287.888 88.9258L291.389 88.5984C291.454 88.5494 291.534 88.5229 291.615 88.5229C291.697 88.5229 291.777 88.5494 291.842 88.5984L329.616 84.9215V71.1961L99.7744 95.5493V107.285L123.547 104.968ZM292.044 82.3024C303.208 79.9566 314.501 78.2747 325.864 77.2655C326.026 76.4361 326.102 75.5921 326.09 74.7471C326.088 74.569 326.15 74.396 326.266 74.2606C326.381 74.1252 326.543 74.0369 326.719 74.0121C326.895 73.9874 327.075 74.0279 327.223 74.1262C327.372 74.2244 327.48 74.3736 327.526 74.5456C328.332 78.1721 328.181 81.3957 324.579 83.2594C322.73 83.954 320.762 84.2791 318.787 84.2164L308.714 85.0475C295.267 86.1052 281.819 87.1126 268.422 87.3392C268.12 87.3392 268.045 86.8607 268.422 86.8104C277.992 85.4504 287.536 84.443 297.156 83.5868L312.265 82.3275C315.06 82.1009 317.856 81.9246 320.651 81.6476C321.51 81.634 322.355 81.4305 323.125 81.0517C323.896 80.6729 324.573 80.1281 325.108 79.4565C314.26 81.0936 303.332 82.1445 292.371 82.6046C292.325 82.6229 292.275 82.6274 292.227 82.6175C292.178 82.6076 292.134 82.5837 292.099 82.5488C292.064 82.514 292.041 82.4697 292.031 82.4214C292.021 82.3731 292.025 82.3229 292.044 82.2772V82.3024Z" fill="white"/>
<path d="M127.551 116.276L148.629 114.387L150.971 106.53C142.396 107.996 133.705 108.671 125.007 108.544L127.526 116.276H127.551ZM134.803 113.481C138.729 112.83 142.689 112.418 146.664 112.247C147.093 112.247 147.193 112.926 146.664 113.002C142.725 113.56 138.756 113.88 134.778 113.959C134.501 113.959 134.426 113.531 134.803 113.481Z" fill="white"/>
<path d="M265.023 92.0235L266.131 91.8472L265.023 92.0235Z" fill="white"/>
<path d="M274.088 103.079L294.385 101.266L297.206 92.5776L297.407 91.948C292.018 92.8546 286.377 92.8798 280.938 93.2827C275.499 93.6857 270.865 94.1894 265.828 94.139L269.001 103.558L274.088 103.079ZM277.387 100.183C282.155 99.1309 286.995 98.4406 291.867 98.1181C292.031 98.1359 292.183 98.2083 292.3 98.3236C292.418 98.439 292.492 98.5904 292.513 98.7536C292.533 98.9167 292.498 99.082 292.413 99.2226C292.328 99.3632 292.198 99.471 292.044 99.5284C287.212 100.294 282.329 100.682 277.438 100.687C277.161 100.737 277.085 100.208 277.387 100.183Z" fill="white"/>
<path d="M136.541 619.534L146.11 620.894V117.535H144.876C139.92 118.641 134.841 119.098 129.767 118.895V618.602L136.415 619.559L136.541 619.534Z" fill="white"/>
<path d="M340.621 6.34645L339.865 8.3612C338.92 8.59766 338.001 8.92664 337.12 9.34338C336.843 9.34338 336.869 9.92262 337.12 9.89744C337.372 9.87226 338.556 9.89744 339.286 9.74633L338.757 11.2826C337.926 11.5596 337.146 11.9374 336.239 12.2396C335.332 12.5418 333.872 12.844 332.739 13.2721C332.562 13.2721 332.512 13.6499 332.739 13.6751C334.529 13.9872 336.371 13.8221 338.077 13.1966C337.901 13.7255 337.75 14.2543 337.574 14.7832C335.615 14.8564 333.675 15.1953 331.807 15.7906C329.497 16.2525 327.217 16.8581 324.982 17.6038C324.916 17.6038 324.852 17.6304 324.804 17.6776C324.757 17.7248 324.731 17.7889 324.731 17.8557C324.731 17.9225 324.757 17.9865 324.804 18.0338C324.852 18.081 324.916 18.1075 324.982 18.1075C327.399 18.0827 329.811 17.9229 332.21 17.629C333.835 17.5534 335.451 17.3513 337.045 17.0246V17.2513C337.045 17.6038 336.843 17.9816 336.717 18.3342C327.95 19.4566 319.256 21.0879 310.679 23.2199C310.598 23.2199 310.522 23.2518 310.465 23.3085C310.408 23.3651 310.376 23.442 310.376 23.5222C310.376 23.6023 310.408 23.6792 310.465 23.7359C310.522 23.7925 310.598 23.8244 310.679 23.8244C318.92 23.3708 327.132 22.4881 335.282 21.18C334.925 21.7072 334.468 22.1587 333.937 22.5088C333.405 22.8589 332.81 23.1005 332.185 23.2199C330.22 23.6733 328.105 23.7992 326.116 24.0762C317.906 25.2095 309.822 27.048 301.663 28.4331C301.437 28.4331 301.487 28.8612 301.663 28.8361C311.736 27.8539 321.809 27.3502 331.681 25.8895C333.051 25.8888 334.392 25.4975 335.547 24.7615C336.702 24.0255 337.624 22.9753 338.203 21.7341C340.042 16.9041 341.425 11.9126 342.333 6.82495C342.349 6.61592 342.292 6.40789 342.171 6.23626C342.051 6.06463 341.875 5.94 341.673 5.88359C341.471 5.82718 341.256 5.84247 341.064 5.92686C340.872 6.01125 340.716 6.15953 340.621 6.34645Z" fill="#244A56"/>
<path d="M300.606 42.9645C308.16 42.486 315.539 42.1837 322.943 41.1512C326.997 40.5719 328.281 37.8269 327.249 33.9988C327.047 33.2685 326.141 33.5203 326.04 34.1499C325.972 34.6934 325.836 35.2264 325.637 35.7366C320.449 35.8625 315.287 37.5498 310.099 37.9528C310.031 37.9723 309.971 38.0136 309.928 38.0704C309.885 38.1272 309.862 38.1964 309.862 38.2676C309.862 38.3387 309.885 38.4079 309.928 38.4647C309.971 38.5215 310.031 38.5628 310.099 38.5824C314.795 38.9427 319.518 38.6973 324.151 37.852C321.633 39.9423 317.251 39.7157 313.927 40.2194C309.445 40.9245 305.013 41.7808 300.555 42.5867C300.329 42.6119 300.379 42.9896 300.606 42.9645Z" fill="#244A56"/>
<path d="M292.95 55.607C287.445 56.2756 281.987 57.2849 276.607 58.6291C276.405 58.6291 276.455 59.0069 276.607 59.0069C282.133 58.6785 287.633 58.0056 293.076 56.9921C293.907 56.8158 293.731 55.5314 292.95 55.607Z" fill="#244A56"/>
<path d="M279.855 73.8908C283.096 73.9785 286.338 73.8016 289.55 73.3619C290.331 73.236 290.13 71.9516 289.349 71.9768C286.126 72.1504 282.924 72.6055 279.78 73.3367C279.452 73.4123 279.553 73.8656 279.855 73.8908Z" fill="#244A56"/>
<path d="M292.119 82.7809C303.08 82.3208 314.008 81.2699 324.856 79.6328C324.321 80.3044 323.644 80.8492 322.873 81.228C322.103 81.6068 321.258 81.8103 320.399 81.8239C317.604 82.1009 314.809 82.2772 312.013 82.5038L296.904 83.7631C287.284 84.6193 277.74 85.6267 268.17 86.9867C267.868 86.9867 267.944 87.5407 268.17 87.5155C281.668 87.2889 295.116 86.2815 308.463 85.2237L318.536 84.3927C320.51 84.4554 322.478 84.1303 324.328 83.4357C327.929 81.572 328.08 78.3988 327.274 74.7219C327.228 74.5499 327.12 74.4007 326.972 74.3025C326.823 74.2042 326.644 74.1637 326.467 74.1884C326.291 74.2132 326.13 74.3015 326.014 74.4369C325.898 74.5722 325.836 74.7453 325.839 74.9234C325.85 75.7684 325.774 76.6124 325.612 77.4418C314.249 78.451 302.956 80.1329 291.792 82.4787C291.78 82.523 291.78 82.5696 291.793 82.6137C291.806 82.6577 291.831 82.6974 291.864 82.7285C291.898 82.7596 291.939 82.7809 291.984 82.7901C292.029 82.7994 292.076 82.7962 292.119 82.7809Z" fill="#244A56"/>
<path d="M277.438 100.737C282.329 100.732 287.212 100.345 292.044 99.5788C292.198 99.5213 292.328 99.4136 292.413 99.273C292.498 99.1323 292.533 98.9671 292.513 98.804C292.492 98.6408 292.418 98.4893 292.3 98.374C292.183 98.2587 292.031 98.1863 291.867 98.1685C286.995 98.491 282.155 99.1813 277.387 100.234C277.085 100.208 277.161 100.737 277.438 100.737Z" fill="#244A56"/>
<path d="M134.803 113.959C138.781 113.88 142.75 113.56 146.69 113.002C147.118 113.002 147.017 112.221 146.69 112.247C142.715 112.418 138.754 112.83 134.829 113.481C134.426 113.531 134.501 113.959 134.803 113.959Z" fill="#244A56"/>
<path d="M134.803 89.1525C137.564 89.0613 140.312 88.7242 143.013 88.1451C143.13 88.0956 143.228 88.0088 143.291 87.8982C143.354 87.7876 143.379 87.6594 143.362 87.5332C143.344 87.4071 143.286 87.2901 143.196 87.2004C143.105 87.1108 142.988 87.0533 142.862 87.037C140.072 87.3674 137.317 87.9405 134.627 88.7496C134.426 88.8503 134.451 89.1777 134.803 89.1525Z" fill="#244A56"/>
<path d="M142.358 75.3767C143.9 75.5156 145.45 75.5156 146.992 75.3767C147.136 75.3351 147.26 75.2437 147.342 75.1189C147.425 74.994 147.46 74.8438 147.442 74.6953C147.424 74.5467 147.353 74.4095 147.243 74.3083C147.133 74.207 146.99 74.1483 146.841 74.1426C145.299 74.2533 143.773 74.5148 142.283 74.9234C141.905 74.873 142.006 75.3767 142.358 75.3767Z" fill="#244A56"/>
<path d="M340.243 27.1235C340.243 27.1235 339.991 27.1235 340.092 27.325C341.973 28.9607 344.131 30.2484 346.463 31.1278C346.665 31.1278 346.816 30.8508 346.614 30.7752C344.423 29.6923 342.358 28.3324 340.243 27.1235Z" fill="white"/>
<path d="M336.743 46.4651C335.753 45.7117 334.7 45.046 333.595 44.4755C332.7 43.8362 331.692 43.3745 330.623 43.1156C331.37 43.9143 332.28 44.5415 333.293 44.954C334.35 45.6107 335.462 46.1753 336.617 46.6414C336.617 46.6414 336.843 46.5406 336.743 46.4651Z" fill="white"/>
<path d="M295.972 60.8201C295.972 60.8201 295.771 60.8201 295.972 60.9712C297.231 62.119 298.679 63.0393 300.253 63.6912C300.404 63.6912 300.53 63.5149 300.404 63.3889C299.053 62.3319 297.561 61.4674 295.972 60.8201Z" fill="white"/>
<path d="M154.647 65.857C154.647 65.857 155.352 66.3355 155.629 66.5118L156.863 67.217C157.588 67.6696 158.356 68.0492 159.155 68.3502C159.432 68.3502 159.533 68.0732 159.331 67.9221C157.853 66.904 156.22 66.1302 154.496 65.6303L154.647 65.857Z" fill="white"/>
<path d="M154.748 80.5898C154.949 80.5898 155.201 80.4135 155 80.2373C153.732 79.2577 152.364 78.4137 150.92 77.7188C150.92 77.7188 150.744 77.7188 150.92 77.8447C152.109 78.8755 153.39 79.7945 154.748 80.5898Z" fill="white"/>
<path d="M151.902 80.9928C152.129 81.1439 152.331 80.7913 152.104 80.6402C151.764 80.4389 151.411 80.2622 151.046 80.1113C151.046 80.1113 150.92 80.1113 151.046 80.1113C151.312 80.4232 151.598 80.7177 151.902 80.9928Z" fill="white"/>
<path d="M331.782 85.8282C331.782 85.8282 331.53 85.9541 331.782 86.0296C332.996 86.7835 334.267 87.4403 335.584 87.994C335.836 87.994 335.962 87.6918 335.761 87.5659C334.484 86.8788 333.153 86.2976 331.782 85.8282Z" fill="white"/>
<path d="M304.836 91.4695C304.232 91.0665 303.527 90.7643 302.897 90.3865C302.268 90.0088 301.487 89.5051 300.757 89.1021C300.757 89.1021 300.58 89.1021 300.757 89.2532C301.892 90.4056 303.244 91.3215 304.736 91.948C304.937 92.0739 305.088 91.6206 304.836 91.4695Z" fill="white"/>
<path d="M300.052 104.364C298.729 103.638 297.358 103.007 295.947 102.475C295.771 102.475 295.67 102.702 295.947 102.802C297.219 103.567 298.54 104.248 299.9 104.842C300.102 104.993 300.379 104.54 300.052 104.364Z" fill="white"/>
<path d="M296.501 104.817L298.113 105.673C298.139 105.684 298.168 105.688 298.197 105.685C298.225 105.682 298.253 105.672 298.277 105.656C298.301 105.64 298.32 105.618 298.334 105.592C298.347 105.567 298.354 105.539 298.354 105.51C298.354 105.481 298.347 105.453 298.334 105.427C298.32 105.402 298.301 105.38 298.277 105.364C298.253 105.348 298.225 105.338 298.197 105.334C298.168 105.331 298.139 105.335 298.113 105.346C297.634 105.22 297.055 105.044 296.501 104.817Z" fill="white"/>
<path d="M158.928 105.573C157.455 104.743 155.892 104.084 154.27 103.608C154.248 103.619 154.23 103.635 154.218 103.655C154.205 103.675 154.199 103.698 154.199 103.722C154.199 103.745 154.205 103.768 154.218 103.789C154.23 103.809 154.248 103.825 154.27 103.835C155.695 104.758 157.214 105.526 158.802 106.127C159.029 106.253 159.231 105.774 158.928 105.573Z" fill="white"/>
<path d="M154.949 117.384C153.632 116.554 152.251 115.829 150.82 115.218C150.82 115.218 150.643 115.218 150.82 115.369C152.057 116.316 153.371 117.159 154.748 117.888C154.804 117.884 154.858 117.864 154.904 117.83C154.949 117.797 154.985 117.751 155.006 117.699C155.027 117.646 155.032 117.589 155.023 117.533C155.013 117.478 154.987 117.426 154.949 117.384Z" fill="white"/>
<path d="M151.046 117.309C151.046 117.686 151.525 117.989 151.802 118.215C152.079 118.442 152.482 118.064 152.205 117.837C151.928 117.611 151.449 117.283 151.046 117.309Z" fill="white"/>
</g>
<defs>
<filter id="filter0_d_12_2" x="-61" y="0" width="416" height="739" filterUnits="userSpaceOnUse" color-interpolation-filters="sRGB">
<feFlood flood-opacity="0" result="BackgroundImageFix"/>
<feColorMatrix in="SourceAlpha" type="matrix" values="0 0 0 0 0 0 0 0 0 0 0 0 0 0 0 0 0 0 127 0" result="hardAlpha"/>
<feOffset dx="-60" dy="65"/>
<feGaussianBlur stdDeviation="12.5"/>
<feColorMatrix type="matrix" values="0 0 0 0 0 0 0 0 0 0 0 0 0 0 0 0 0 0 0.71 0"/>
<feBlend mode="normal" in2="BackgroundImageFix" result="effect1_dropShadow_12_2"/>
<feBlend mode="normal" in="SourceGraphic" in2="effect1_dropShadow_12_2" result="shape"/>
</filter>
</defs>
</svg>
