<svg width="279" height="224" viewBox="0 0 279 224" fill="none" xmlns="http://www.w3.org/2000/svg">
<path d="M227.725 416.615C299.922 416.615 358.449 358.05 358.449 285.807C358.449 213.564 299.922 155 227.725 155C155.527 155 97 213.564 97 285.807C97 358.05 155.527 416.615 227.725 416.615Z" fill="#BA131A"/>
<g filter="url(#filter0_d_113_399)">
<path d="M285.604 0.270535L290.995 3.40115C291.403 3.63014 291.713 3.99913 291.87 4.43975C292.026 4.88037 292.017 5.36273 291.845 5.79743L287.613 24.6584C287.531 25.0264 287.343 25.3623 287.072 25.6247L286.724 25.9339L286.299 26.1658H285.874L280.251 26.9001V36.5625V36.6785V37.007L280.096 37.2195C280.03 37.3368 279.953 37.4469 279.864 37.5481V37.664L279.729 37.8186L279.439 37.9925L279.053 38.1665H278.685L256.095 40.9106L253.158 50.0512C253.058 50.3685 252.879 50.6547 252.636 50.8822L252.385 51.0754C252.27 51.1738 252.139 51.2522 251.998 51.3073H251.863L251.052 51.4039V54.6892L273.159 52.3702H273.294H273.564H273.758L273.738 52.5248L279.13 55.6554C279.441 55.8253 279.699 56.0775 279.876 56.3842C280.053 56.6909 280.143 57.0405 280.135 57.3946V69.1055V69.2407V69.5886L279.999 69.7625C279.935 69.8808 279.858 69.9911 279.768 70.091L279.632 70.2649L279.362 70.4389C279.22 70.5122 279.071 70.5705 278.917 70.6128C278.796 70.6308 278.672 70.6308 278.55 70.6128L255.999 72.8158L253.061 81.8405C252.959 82.1668 252.773 82.4602 252.52 82.6908L252.269 82.884C252.15 82.9712 252.02 83.0426 251.882 83.0966H251.747H250.955V495.836C250.961 496.126 250.902 496.414 250.781 496.678C250.661 496.943 250.482 497.176 250.259 497.362C249.893 497.678 249.428 497.856 248.945 497.865H248.694L232.983 495.604C232.508 495.551 232.07 495.325 231.752 494.968C231.435 494.611 231.26 494.149 231.263 493.671V493.072L227.592 492.531C227.113 492.483 226.67 492.258 226.349 491.901C226.027 491.544 225.85 491.079 225.853 490.599V82.169L224.384 81.3381L224.21 81.0675L224.075 80.9129L223.939 80.5651L222.413 76.0817L143.724 83.8116L141.328 91.8894C141.224 92.226 141.038 92.5314 140.786 92.7783L140.381 93.1069L140.129 93.2035H139.994H139.569V479.893C139.566 480.182 139.503 480.467 139.383 480.73C139.263 480.993 139.09 481.228 138.873 481.419C138.497 481.728 138.027 481.899 137.54 481.902H137.289L124.129 479.97C123.654 479.917 123.215 479.691 122.898 479.334C122.58 478.977 122.406 478.515 122.409 478.037V477.419L118.737 476.897C118.267 476.83 117.835 476.599 117.518 476.246C117.2 475.893 117.016 475.44 116.998 474.965V91.6768L116.264 91.3676L116.013 91.1937C115.829 91.0628 115.672 90.899 115.549 90.7106L115.414 90.556L115.298 90.1888L114.041 86.5171L101.191 87.7732C100.837 87.7766 100.49 87.683 100.186 87.5027L94.3886 84.1788V84.0242C94.2362 83.8548 94.1063 83.6664 94.0021 83.4638C93.8908 83.2007 93.8317 82.9185 93.8282 82.6328V72.9704C93.827 72.4805 94.0119 72.0084 94.3455 71.6496C94.6792 71.2909 95.1366 71.0722 95.6253 71.0379L116.882 68.7769V63.7718L115.298 61.8393V61.4915L113.926 58.129L101.017 59.675C100.658 59.6744 100.305 59.5812 99.9927 59.4044L94.1953 56.0805V55.9453C94.0255 55.7787 93.888 55.5821 93.7895 55.3655C93.6747 55.1035 93.6155 54.8206 93.6156 54.5346V50.4377L88.6492 47.0559V46.8433C88.5303 46.7147 88.4383 46.5635 88.3787 46.3988V46.3022C88.372 46.1992 88.372 46.096 88.3787 45.993L85.2481 30.7651C85.1729 30.4744 85.1665 30.1702 85.2293 29.8767C85.2921 29.5831 85.4224 29.3082 85.61 29.0737C85.7975 28.8393 86.0371 28.6518 86.3097 28.5261C86.5824 28.4004 86.8805 28.3399 87.1806 28.3495H92.1083C149.869 28.3495 215.784 18.6677 282.917 0.502432L284.289 0.115936H284.908H285.159H285.352L285.604 0.270535Z" fill="#244A56"/>
<path d="M223.611 41.2778L225.949 48.1574L245.274 45.935H245.467L247.902 38.3984C239.883 39.9284 231.766 40.8906 223.611 41.2778ZM244.52 43.732C240.344 44.5097 236.123 45.026 231.882 45.278C231.727 45.278 231.689 45.0075 231.882 44.9881C236.01 43.9567 240.199 43.1822 244.423 42.6692C244.984 42.6112 245.119 43.5967 244.52 43.732Z" fill="white"/>
<path d="M96.8041 44.447C110.08 42.0508 123.588 40.756 136.96 39.0554C152.033 37.1487 167.113 35.2162 182.199 33.258L191.629 32.0598L280.057 20.5616L284.135 2.47357L283.517 2.6475C216.287 20.9867 150.082 30.6878 92.1083 30.6878H87.6637L90.6203 45.22L96.8041 44.447ZM282.318 5.29499C281.621 9.19894 280.56 13.0291 279.149 16.7353C278.705 17.6877 277.997 18.4935 277.111 19.0583C276.224 19.6231 275.195 19.9233 274.144 19.9239C266.414 21.0447 258.801 21.4312 251.11 22.1849C250.936 22.1849 250.897 21.895 251.11 21.8757C257.371 20.8128 263.574 19.4021 269.874 18.5325C271.4 18.3199 273.023 18.2233 274.531 17.8754C275.01 17.7838 275.467 17.5984 275.875 17.3297C276.283 17.0611 276.634 16.7146 276.908 16.3101C270.654 17.3139 264.352 17.9912 258.028 18.3392C257.966 18.3392 257.907 18.3148 257.864 18.2713C257.82 18.2278 257.796 18.1688 257.796 18.1073C257.796 18.0458 257.82 17.9868 257.864 17.9434C257.907 17.8999 257.966 17.8754 258.028 17.8754C264.61 16.2394 271.282 14.9877 278.009 14.1264C278.009 13.8559 278.183 13.566 278.26 13.2955V13.1215C277.037 13.3722 275.797 13.5273 274.55 13.5853C272.767 13.8045 270.974 13.927 269.178 13.9525C269.127 13.9525 269.077 13.9321 269.041 13.8959C269.005 13.8597 268.985 13.8105 268.985 13.7593C268.985 13.708 269.005 13.6588 269.041 13.6226C269.077 13.5864 269.127 13.566 269.178 13.566C270.893 12.9938 272.642 12.5291 274.415 12.1746C275.848 11.7179 277.337 11.4578 278.84 11.4016C278.975 10.9958 279.091 10.59 279.227 10.1842C277.917 10.6642 276.504 10.7908 275.13 10.5513C274.956 10.5513 274.994 10.3001 275.13 10.2421C275.999 9.91362 276.927 9.75902 277.816 9.44982C278.705 9.14063 279.053 8.92805 279.748 8.71548L280.154 7.53667C279.594 7.53667 279.014 7.53667 278.492 7.65262C277.97 7.76857 278.222 7.30477 278.492 7.22747C279.168 6.90769 279.873 6.65525 280.599 6.4738L281.178 4.92782C281.265 4.84729 281.37 4.79015 281.485 4.76178C281.6 4.73342 281.72 4.73477 281.834 4.76572C281.948 4.79666 282.053 4.85617 282.137 4.93864C282.222 5.0211 282.284 5.12379 282.318 5.23702V5.29499Z" fill="white"/>
<path d="M131.704 68.8736V61.1436C129.327 61.5108 126.873 61.7427 124.477 61.9553C122.748 62.1929 120.998 62.2382 119.259 62.0906V70.1683L131.704 68.8736ZM122.892 68.1199C124.956 67.499 127.071 67.0594 129.211 66.8058C129.308 66.8183 129.398 66.8624 129.467 66.9312C129.537 67 129.582 67.0898 129.595 67.1866C129.608 67.2834 129.589 67.3818 129.54 67.4667C129.492 67.5515 129.417 67.6181 129.327 67.6561C127.254 68.0939 125.146 68.3462 123.027 68.4098C122.757 68.4291 122.738 68.1779 122.892 68.1199Z" fill="white"/>
<path d="M114.37 51.9257L130.834 49.9932L222.471 38.8428L249.042 35.6156L272.598 32.7555V23.9627C258.086 26.3783 243.341 27.8277 228.751 29.6056L183.532 35.3064L136.96 41.1038C123.433 42.8044 109.79 44.9688 96.1471 45.8964V54.1094L114.37 51.9257ZM250.221 32.6009C253.641 31.9825 257.042 31.3255 260.482 30.7844C263.033 30.3979 266.395 30.5718 268.328 28.9679C264.772 29.6164 261.148 29.8048 257.545 29.5283C257.492 29.5133 257.446 29.4816 257.413 29.438C257.38 29.3944 257.362 29.3413 257.362 29.2867C257.362 29.2321 257.38 29.179 257.413 29.1354C257.446 29.0918 257.492 29.0602 257.545 29.0452C261.525 28.736 265.487 27.4412 269.468 27.3446C269.621 26.9531 269.725 26.5442 269.777 26.1271C269.777 25.644 270.55 25.4507 270.704 26.0112C271.497 28.9485 270.511 31.0549 267.4 31.4994C261.719 32.2917 255.979 32.5236 250.259 32.8908C250.085 32.9874 250.047 32.6975 250.221 32.6782V32.6009Z" fill="white"/>
<path d="M121.346 60.0808L126.892 59.4624L131.975 58.8826L133.598 58.6894L135.53 51.9257C128.875 53.3199 122.112 54.1346 115.317 54.3606L117.249 60.5446L121.346 60.0808ZM128.825 57.414C129.968 57.1005 131.14 56.8998 132.322 56.8149C132.437 56.8192 132.547 56.8643 132.631 56.942C132.716 57.0197 132.77 57.125 132.784 57.239C132.798 57.3529 132.771 57.4682 132.707 57.564C132.644 57.6598 132.549 57.7299 132.438 57.7618C131.255 57.8684 130.065 57.8684 128.883 57.7618C128.554 57.8391 128.477 57.4526 128.825 57.414Z" fill="white"/>
<path d="M229.601 58.5155L233.234 58.129L243.032 57.1048H243.206V48.312H241.93C237.434 49.3641 232.828 49.8766 228.21 49.8386V58.7087L229.601 58.5155ZM234.278 56.2738C236.691 55.7127 239.148 55.3635 241.621 55.2303C242.22 55.2303 242.375 56.1965 241.776 56.2931C239.311 56.6305 236.823 56.7662 234.336 56.6989C234.104 56.6796 234.027 56.3318 234.278 56.2738Z" fill="white"/>
<path d="M233.331 491.043L243.206 492.473V79.966H242.993C238.096 80.6616 233.156 81.0103 228.21 81.0095V490.309L233.312 491.043H233.331Z" fill="white"/>
<path d="M114.389 80.5457L136.651 78.362L222.471 69.9944L240.5 68.2359L243.186 67.9846C243.237 67.947 243.298 67.9267 243.36 67.9267C243.423 67.9267 243.484 67.947 243.534 67.9846L272.521 65.1632V54.6312L96.1471 73.3183V82.3236L114.389 80.5457ZM243.689 63.1534C252.256 61.3534 260.922 60.0628 269.642 59.2885C269.766 58.6521 269.825 58.0044 269.816 57.356C269.813 57.2193 269.861 57.0866 269.95 56.9827C270.039 56.8789 270.163 56.811 270.298 56.792C270.433 56.773 270.571 56.8042 270.685 56.8796C270.799 56.9549 270.882 57.0694 270.917 57.2014C271.535 59.9842 271.419 62.4577 268.656 63.8878C267.237 64.4208 265.727 64.6703 264.211 64.6221L256.482 65.2598C246.162 66.0715 235.843 66.8445 225.563 67.0184C225.331 67.0184 225.273 66.6512 225.563 66.6126C232.906 65.569 240.23 64.796 247.612 64.139L259.206 63.1728C261.351 62.9988 263.496 62.8636 265.641 62.651C266.3 62.6406 266.949 62.4844 267.54 62.1938C268.132 61.9031 268.651 61.4851 269.062 60.9697C260.737 62.2259 252.351 63.0323 243.94 63.3853C243.905 63.3994 243.867 63.4028 243.829 63.3952C243.792 63.3876 243.758 63.3693 243.732 63.3426C243.705 63.3158 243.687 63.2818 243.679 63.2448C243.671 63.2077 243.675 63.1692 243.689 63.1341V63.1534Z" fill="white"/>
<path d="M117.462 89.2226L133.637 87.7732L135.434 81.7439C128.854 82.8692 122.185 83.3867 115.51 83.2899L117.443 89.2226H117.462ZM123.027 87.0775C126.039 86.5786 129.079 86.2624 132.129 86.1306C132.458 86.1306 132.535 86.6524 132.129 86.7104C129.106 87.1389 126.061 87.3841 123.008 87.4447C122.796 87.4447 122.738 87.1162 123.027 87.0775Z" fill="white"/>
<path d="M222.954 70.6128L223.804 70.4775L222.954 70.6128Z" fill="white"/>
<path d="M229.911 79.0964L245.486 77.705L247.65 71.0379L247.805 70.5548C243.67 71.2505 239.341 71.2698 235.167 71.579C230.993 71.8882 227.437 72.2747 223.572 72.2361L226.007 79.4635L229.911 79.0964ZM232.442 76.874C236.101 76.0666 239.815 75.5368 243.554 75.2894C243.679 75.303 243.796 75.3586 243.886 75.4471C243.976 75.5356 244.033 75.6518 244.049 75.777C244.065 75.9022 244.038 76.029 243.972 76.1369C243.907 76.2448 243.807 76.3275 243.689 76.3716C239.982 76.9593 236.234 77.2565 232.481 77.2605C232.268 77.2992 232.21 76.8933 232.442 76.874Z" fill="white"/>
<path d="M124.361 475.39L131.704 476.434V90.1888H130.757C126.954 91.0369 123.056 91.3877 119.162 91.2324V474.675L124.264 475.409L124.361 475.39Z" fill="white"/>
<path d="M280.966 4.86984L280.386 6.41583C279.661 6.59727 278.955 6.84971 278.28 7.16949C278.067 7.16949 278.086 7.61397 278.28 7.59464C278.473 7.57532 279.381 7.59464 279.942 7.47869L279.536 8.6575C278.898 8.87008 278.299 9.15995 277.603 9.39185C276.908 9.62374 275.787 9.85564 274.917 10.1842C274.782 10.1842 274.743 10.474 274.917 10.4934C276.291 10.7328 277.704 10.6062 279.014 10.1262C278.879 10.532 278.763 10.9378 278.627 11.3436C277.124 11.3998 275.635 11.6599 274.202 12.1166C272.429 12.4711 270.68 12.9358 268.965 13.508C268.914 13.508 268.865 13.5284 268.829 13.5646C268.792 13.6009 268.772 13.65 268.772 13.7013C268.772 13.7525 268.792 13.8017 268.829 13.8379C268.865 13.8742 268.914 13.8945 268.965 13.8945C270.819 13.8754 272.671 13.7529 274.511 13.5274C275.758 13.4693 276.999 13.3143 278.222 13.0636V13.2375C278.222 13.508 278.067 13.7979 277.97 14.0684C271.243 14.9297 264.571 16.1815 257.989 17.8175C257.927 17.8175 257.869 17.8419 257.825 17.8854C257.782 17.9289 257.757 17.9879 257.757 18.0494C257.757 18.1109 257.782 18.1698 257.825 18.2133C257.869 18.2568 257.927 18.2813 257.989 18.2813C264.313 17.9332 270.615 17.2559 276.869 16.2521C276.595 16.6567 276.244 17.0032 275.837 17.2718C275.429 17.5404 274.972 17.7258 274.492 17.8175C272.985 18.1653 271.361 18.2619 269.835 18.4745C263.535 19.3441 257.332 20.7548 251.071 21.8177C250.897 21.8177 250.936 22.1462 251.071 22.1269C258.801 21.3732 266.53 20.9867 274.106 19.8659C275.157 19.8654 276.186 19.5651 277.072 19.0003C277.959 18.4356 278.666 17.6297 279.111 16.6773C280.522 12.9711 281.583 9.14096 282.28 5.23702C282.292 5.07662 282.248 4.91699 282.156 4.78529C282.063 4.65359 281.928 4.55796 281.773 4.51468C281.618 4.47139 281.453 4.48313 281.306 4.54788C281.159 4.61264 281.039 4.72641 280.966 4.86984Z" fill="#244A56"/>
<path d="M250.259 32.9681C256.057 32.6009 261.719 32.369 267.4 31.5767C270.511 31.1322 271.497 29.0258 270.704 26.0885C270.55 25.528 269.854 25.7213 269.777 26.2044C269.725 26.6215 269.621 27.0304 269.468 27.4219C265.487 27.5185 261.525 28.8133 257.545 29.1225C257.492 29.1375 257.446 29.1691 257.413 29.2127C257.38 29.2563 257.362 29.3094 257.362 29.364C257.362 29.4186 257.38 29.4717 257.413 29.5153C257.446 29.5589 257.492 29.5906 257.545 29.6056C261.148 29.8821 264.772 29.6937 268.328 29.0452C266.395 30.6491 263.033 30.4752 260.482 30.8617C257.042 31.4028 253.641 32.0598 250.221 32.6782C250.047 32.6975 250.085 32.9874 250.259 32.9681Z" fill="#244A56"/>
<path d="M244.385 42.6691C240.16 43.1822 235.972 43.9567 231.843 44.9881C231.689 44.9881 231.727 45.278 231.843 45.278C236.084 45.026 240.305 44.5097 244.481 43.732C245.119 43.5967 244.984 42.6112 244.385 42.6691Z" fill="#244A56"/>
<path d="M234.336 56.6989C236.823 56.7662 239.311 56.6305 241.776 56.2931C242.375 56.1965 242.22 55.2109 241.621 55.2303C239.148 55.3635 236.691 55.7127 234.278 56.2738C234.027 56.3318 234.104 56.6796 234.336 56.6989Z" fill="#244A56"/>
<path d="M243.747 63.5206C252.158 63.1676 260.544 62.3612 268.869 61.105C268.458 61.6203 267.938 62.0383 267.347 62.329C266.756 62.6197 266.107 62.7759 265.448 62.7863C263.303 62.9988 261.158 63.1341 259.013 63.308L247.419 64.2743C240.037 64.9313 232.713 65.7043 225.37 66.7478C225.138 66.7478 225.196 67.173 225.37 67.1537C235.727 66.9797 246.047 66.2067 256.289 65.3951L264.018 64.7574C265.534 64.8055 267.044 64.5561 268.463 64.023C271.226 62.593 271.342 60.1581 270.724 57.3367C270.688 57.2047 270.606 57.0902 270.492 57.0148C270.378 56.9394 270.24 56.9083 270.105 56.9273C269.969 56.9463 269.846 57.0141 269.757 57.118C269.668 57.2218 269.62 57.3546 269.622 57.4913C269.631 58.1397 269.573 58.7873 269.448 59.4237C260.729 60.1981 252.063 61.4887 243.496 63.2887C243.487 63.3227 243.487 63.3585 243.497 63.3923C243.507 63.4261 243.526 63.4566 243.551 63.4804C243.577 63.5043 243.609 63.5206 243.644 63.5277C243.678 63.5348 243.714 63.5323 243.747 63.5206Z" fill="#244A56"/>
<path d="M232.481 77.2992C236.234 77.2952 239.982 76.9979 243.689 76.4103C243.807 76.3662 243.907 76.2835 243.972 76.1756C244.038 76.0677 244.065 75.9409 244.049 75.8157C244.033 75.6905 243.976 75.5743 243.886 75.4858C243.796 75.3973 243.679 75.3417 243.554 75.3281C239.815 75.5755 236.101 76.1052 232.442 76.9127C232.21 76.8934 232.268 77.2992 232.481 77.2992Z" fill="#244A56"/>
<path d="M123.027 87.4447C126.08 87.3841 129.126 87.1389 132.148 86.7104C132.477 86.7104 132.4 86.1113 132.148 86.1306C129.098 86.2624 126.059 86.5786 123.047 87.0775C122.737 87.1162 122.795 87.4447 123.027 87.4447Z" fill="#244A56"/>
<path d="M123.027 68.4098C125.146 68.3398 127.254 68.0811 129.327 67.6368C129.417 67.5988 129.492 67.5322 129.541 67.4473C129.589 67.3625 129.608 67.264 129.595 67.1673C129.582 67.0705 129.537 66.9807 129.467 66.9119C129.398 66.8431 129.308 66.799 129.211 66.7865C127.071 67.04 124.956 67.4797 122.892 68.1006C122.738 68.1779 122.757 68.4291 123.027 68.4098Z" fill="#244A56"/>
<path d="M128.825 57.8391C130.008 57.9457 131.198 57.9457 132.38 57.8391C132.491 57.8073 132.586 57.7371 132.649 57.6413C132.713 57.5455 132.74 57.4303 132.726 57.3163C132.712 57.2023 132.658 57.097 132.573 57.0193C132.489 56.9416 132.379 56.8965 132.264 56.8922C131.082 56.9771 129.91 57.1778 128.767 57.4913C128.477 57.4526 128.554 57.8391 128.825 57.8391Z" fill="#244A56"/>
<path d="M277.99 35.6542C277.23 35.0762 276.422 34.5653 275.574 34.1276C274.888 33.637 274.114 33.2827 273.294 33.084C273.867 33.6969 274.566 34.1782 275.342 34.4948C276.154 34.9987 277.007 35.4319 277.893 35.7895C277.893 35.7895 278.067 35.7122 277.99 35.6542Z" fill="white"/>
<path d="M246.704 46.6694C246.704 46.6694 246.549 46.6694 246.704 46.7853C247.67 47.666 248.781 48.3722 249.989 48.8724C250.105 48.8724 250.201 48.7371 250.105 48.6405C249.068 47.8294 247.923 47.166 246.704 46.6694Z" fill="white"/>
<path d="M138.255 50.5343C138.255 50.5343 138.796 50.9015 139.009 51.0368L139.956 51.5779C140.512 51.9252 141.101 52.2165 141.714 52.4475C141.927 52.4475 142.004 52.2349 141.849 52.119C140.715 51.3377 139.462 50.744 138.139 50.3604L138.255 50.5343Z" fill="white"/>
<path d="M138.332 61.8393C138.487 61.8393 138.68 61.7041 138.526 61.5688C137.552 60.8172 136.503 60.1695 135.395 59.6363C135.395 59.6363 135.26 59.6363 135.395 59.7329C136.307 60.5239 137.29 61.229 138.332 61.8393Z" fill="white"/>
<path d="M136.149 62.1485C136.323 62.2645 136.477 61.9939 136.303 61.878C136.043 61.7236 135.772 61.5879 135.492 61.4722C135.492 61.4722 135.395 61.4722 135.492 61.4722C135.696 61.7115 135.915 61.9374 136.149 62.1485Z" fill="white"/>
<path d="M274.183 65.8589C274.183 65.8589 273.99 65.9555 274.183 66.0135C275.114 66.5919 276.09 67.0959 277.101 67.5208C277.294 67.5208 277.391 67.2889 277.236 67.1923C276.257 66.665 275.235 66.2191 274.183 65.8589Z" fill="white"/>
<path d="M253.506 70.1877C253.042 69.8785 252.501 69.6466 252.018 69.3567C251.535 69.0668 250.936 68.6803 250.375 68.3711C250.375 68.3711 250.24 68.3711 250.375 68.4871C251.246 69.3713 252.284 70.0741 253.428 70.5548C253.583 70.6514 253.699 70.3036 253.506 70.1877Z" fill="white"/>
<path d="M249.834 80.0819C248.82 79.5253 247.767 79.0409 246.684 78.6326C246.549 78.6326 246.472 78.8065 246.684 78.8838C247.661 79.4702 248.674 79.9931 249.718 80.4491C249.873 80.5651 250.085 80.2172 249.834 80.0819Z" fill="white"/>
<path d="M247.109 80.4298L248.346 81.0869C248.367 81.0951 248.389 81.0981 248.411 81.0957C248.433 81.0934 248.454 81.0856 248.472 81.0733C248.49 81.0609 248.505 81.0442 248.516 81.0246C248.526 81.0051 248.532 80.9833 248.532 80.9612C248.532 80.9391 248.526 80.9174 248.516 80.8978C248.505 80.8783 248.49 80.8616 248.472 80.8492C248.454 80.8368 248.433 80.8291 248.411 80.8268C248.389 80.8244 248.367 80.8274 248.346 80.8356C247.979 80.739 247.535 80.6037 247.109 80.4298Z" fill="white"/>
<path d="M141.54 81.0095C140.41 80.3731 139.21 79.8674 137.965 79.5022C137.949 79.5101 137.935 79.5225 137.925 79.5378C137.916 79.5532 137.911 79.571 137.911 79.5892C137.911 79.6073 137.916 79.6251 137.925 79.6405C137.935 79.6559 137.949 79.6682 137.965 79.6761C139.059 80.3841 140.225 80.9736 141.444 81.4347C141.617 81.5313 141.772 81.1641 141.54 81.0095Z" fill="white"/>
<path d="M138.487 90.0729C137.476 89.4357 136.417 88.88 135.318 88.4109C135.318 88.4109 135.182 88.411 135.318 88.5269C136.267 89.2535 137.276 89.8999 138.332 90.4594C138.376 90.4561 138.417 90.4407 138.452 90.4151C138.487 90.3894 138.514 90.3545 138.53 90.3143C138.546 90.274 138.551 90.2301 138.543 90.1874C138.535 90.1448 138.516 90.1051 138.487 90.0729Z" fill="white"/>
<path d="M135.492 90.0149C135.492 90.3048 135.859 90.5367 136.071 90.7106C136.284 90.8845 136.593 90.5946 136.38 90.4207C136.168 90.2468 135.801 89.9956 135.492 90.0149Z" fill="white"/>
</g>
<defs>
<filter id="filter0_d_113_399" x="-47" y="0" width="339" height="588" filterUnits="userSpaceOnUse" color-interpolation-filters="sRGB">
<feFlood flood-opacity="0" result="BackgroundImageFix"/>
<feColorMatrix in="SourceAlpha" type="matrix" values="0 0 0 0 0 0 0 0 0 0 0 0 0 0 0 0 0 0 127 0" result="hardAlpha"/>
<feOffset dx="-60" dy="65"/>
<feGaussianBlur stdDeviation="12.5"/>
<feColorMatrix type="matrix" values="0 0 0 0 0 0 0 0 0 0 0 0 0 0 0 0 0 0 0.71 0"/>
<feBlend mode="normal" in2="BackgroundImageFix" result="effect1_dropShadow_113_399"/>
<feBlend mode="normal" in="SourceGraphic" in2="effect1_dropShadow_113_399" result="shape"/>
</filter>
</defs>
</svg>
