<svg width="80" height="80" viewBox="0 0 80 80" fill="none" xmlns="http://www.w3.org/2000/svg">
<path d="M42.7907 28.8372C42.7907 27.2959 41.5413 26.0465 40 26.0465C38.4587 26.0465 37.2093 27.2959 37.2093 28.8372V37.2093H28.8372C27.2959 37.2093 26.0465 38.4587 26.0465 40C26.0465 41.5413 27.2959 42.7907 28.8372 42.7907H37.2093V51.1628C37.2093 52.7041 38.4587 53.9535 40 53.9535C41.5413 53.9535 42.7907 52.7041 42.7907 51.1628V42.7907H51.1628C52.7041 42.7907 53.9535 41.5413 53.9535 40C53.9535 38.4587 52.7041 37.2093 51.1628 37.2093H42.7907V28.8372Z" fill="#244A56"/>
<path fill-rule="evenodd" clip-rule="evenodd" d="M40 0C17.9086 0 0 17.9086 0 40C0 62.0914 17.9086 80 40 80C62.0914 80 80 62.0914 80 40C80 17.9086 62.0914 0 40 0ZM5.5814 40C5.5814 20.9911 20.9911 5.5814 40 5.5814C59.0089 5.5814 74.4186 20.9911 74.4186 40C74.4186 59.0089 59.0089 74.4186 40 74.4186C20.9911 74.4186 5.5814 59.0089 5.5814 40Z" fill="#244A56"/>
</svg>
