<svg width="30" height="31" viewBox="0 0 30 31" fill="none" xmlns="http://www.w3.org/2000/svg">
<path d="M10.2603 0.500006C8.9495 0.499902 8.15105 0.499839 7.46232 0.608924C3.67712 1.20844 0.708441 4.17712 0.108923 7.96232C-0.000160119 8.65105 -9.72149e-05 9.44949 6.68051e-06 10.7603L6.31371e-06 20.2397C-9.77651e-05 21.5505 -0.000161036 22.349 0.108922 23.0377C0.708439 26.8229 3.67712 29.7916 7.46232 30.3911C8.15106 30.5002 8.9495 30.5001 10.2603 30.5L11.9231 30.5C13.9132 30.5 15.7529 29.8414 17.2314 28.7308C17.741 28.3481 17.8438 27.6248 17.461 27.1153C17.0783 26.6057 16.355 26.503 15.8455 26.8857C14.7528 27.7064 13.3964 28.1923 11.9231 28.1923H10.3846C8.91129 28.1923 8.30896 28.1887 7.82332 28.1118C5.02557 27.6687 2.83132 25.4744 2.3882 22.6767C2.31129 22.191 2.3077 21.5887 2.3077 20.1154L2.3077 10.8846C2.3077 9.41129 2.31129 8.80896 2.3882 8.32332C2.83132 5.52556 5.02557 3.33132 7.82332 2.8882C8.30897 2.81128 8.91129 2.8077 10.3846 2.8077H11.9231C13.3964 2.8077 14.7528 3.29359 15.8455 4.11433C16.355 4.49705 17.0783 4.39425 17.461 3.88473C17.8438 3.37521 17.741 2.6519 17.2314 2.26918C15.7529 1.15857 13.9132 0.500013 11.9231 0.500013L10.2603 0.500006Z" fill="#244A56"/>
<path d="M23.4092 8.44203C22.9099 8.04611 22.1841 8.12995 21.7882 8.62928C21.3923 9.12862 21.4761 9.85437 21.9754 10.2503L24.6877 12.4008C25.7708 13.2596 26.5124 13.8498 27.0161 14.3462L7.3077 14.3462C6.67045 14.3462 6.15386 14.8627 6.15386 15.5C6.15386 16.1373 6.67045 16.6538 7.3077 16.6538L27.0161 16.6538C26.5124 17.1502 25.7708 17.7404 24.6877 18.5992L21.9754 20.7497C21.4761 21.1456 21.3923 21.8714 21.7882 22.3707C22.1841 22.8701 22.9098 22.9539 23.4092 22.558L26.1765 20.3638C27.2111 19.5435 28.0649 18.8666 28.673 18.2607C29.2972 17.639 29.8145 16.949 29.955 16.0672C29.985 15.8793 30 15.6898 30 15.5C30 15.3102 29.985 15.1207 29.955 14.9328C29.8145 14.051 29.2972 13.361 28.673 12.7393C28.0649 12.1334 27.2111 11.4565 26.1766 10.6363L23.4092 8.44203Z" fill="#244A56"/>
</svg>
