<svg width="30" height="33" viewBox="0 0 30 33" fill="none" xmlns="http://www.w3.org/2000/svg">
<path fill-rule="evenodd" clip-rule="evenodd" d="M13.4 0C7.60376 0 3.11912 4.79068 3.83806 10.2145L3.97352 11.2364C4.17174 12.7318 3.5925 14.2255 2.41806 15.2475C-0.0155962 17.3653 -0.691737 20.7361 0.753508 23.5458L0.929929 23.8888C2.20362 26.365 4.78985 27.9866 7.67693 28.156L7.99832 28.6756C9.72717 31.4705 12.4209 33 15.2494 33C18.078 33 20.7717 31.4705 22.5005 28.6756L22.827 28.1479C25.2521 27.9671 27.4633 26.724 28.7821 24.7699C30.8 21.7799 30.2655 17.8574 27.5116 15.4456L27.4367 15.3799C26.176 14.2759 25.5553 12.6674 25.7687 11.0574L25.879 10.2253C26.5987 4.79575 22.1093 0 16.3069 0H13.4ZM8.3971 25.7561C8.4125 25.7558 8.42788 25.7558 8.44325 25.7561H22.0556C22.071 25.7558 22.0864 25.7558 22.1018 25.7561H22.2122C23.9992 25.7561 25.6624 24.8952 26.6219 23.4734C27.9764 21.4665 27.6176 18.8337 25.7692 17.2149L25.6943 17.1493C23.8302 15.5167 22.9124 13.1384 23.228 10.7579L23.3383 9.9258C23.8669 5.93743 20.5692 2.41463 16.3069 2.41463H13.4C9.14391 2.41463 5.8509 5.93236 6.37881 9.91499L6.51427 10.9369C6.81498 13.2056 5.93624 15.4716 4.15452 17.0221C2.55034 18.418 2.10465 20.6399 3.05731 22.492L3.23373 22.835C4.15273 24.6216 6.07338 25.7561 8.17911 25.7561H8.3971ZM15.2494 30.5854C13.677 30.5854 11.9994 29.8412 10.7032 28.1707H19.7957C18.4994 29.8412 16.8218 30.5854 15.2494 30.5854Z" fill="#244A56"/>
</svg>
