<svg width="31" height="33" viewBox="0 0 31 33" fill="none" xmlns="http://www.w3.org/2000/svg">
<path d="M6.80345 1.95899C7.26981 1.57948 7.34543 0.887263 6.97233 0.412876C6.59924 -0.0615121 5.91873 -0.138425 5.45236 0.241085L1.84771 3.17441C1.38135 3.55392 1.30574 4.24615 1.67883 4.72053C2.05192 5.19492 2.73243 5.27183 3.1988 4.89232L6.80345 1.95899Z" fill="#244A56"/>
<path d="M25.5476 0.241085C25.0813 -0.138425 24.4008 -0.0615121 24.0277 0.412876C23.6546 0.887263 23.7302 1.57948 24.1966 1.95899L27.8012 4.89232C28.2676 5.27183 28.9481 5.19492 29.3212 4.72053C29.6943 4.24615 29.6187 3.55392 29.1523 3.17441L25.5476 0.241085Z" fill="#244A56"/>
<path d="M16.5814 11.3667C16.5814 10.7592 16.0972 10.2667 15.5 10.2667C14.9028 10.2667 14.4186 10.7592 14.4186 11.3667V17.5353C14.4186 18.0028 14.243 18.4527 13.9277 18.7929L11.8294 21.0567C11.4197 21.4987 11.4399 22.1949 11.8744 22.6117C12.309 23.0284 12.9934 23.0079 13.4031 22.5659L15.5013 20.3021C16.195 19.5537 16.5814 18.5639 16.5814 17.5353V11.3667Z" fill="#244A56"/>
<path fill-rule="evenodd" clip-rule="evenodd" d="M15.5 1.4667C6.93959 1.4667 0 8.52567 0 17.2334C0 25.941 6.93959 33 15.5 33C24.0604 33 31 25.941 31 17.2334C31 8.52567 24.0604 1.4667 15.5 1.4667ZM2.16279 17.2334C2.16279 9.7407 8.13406 3.6667 15.5 3.6667C22.8659 3.6667 28.8372 9.7407 28.8372 17.2334C28.8372 24.726 22.8659 30.8 15.5 30.8C8.13406 30.8 2.16279 24.726 2.16279 17.2334Z" fill="#244A56"/>
</svg>
